<svg width="34" height="33" viewBox="0 0 34 33" fill="none" xmlns="http://www.w3.org/2000/svg">
<path fill-rule="evenodd" clip-rule="evenodd" d="M24 14.0001C24 19.523 19.5228 24.0001 14 24.0001C8.47715 24.0001 4 19.523 4 14.0001C4 8.47727 8.47715 4.00012 14 4.00012C19.5228 4.00012 24 8.47727 24 14.0001ZM22.4001 25.201C20.0603 26.9586 17.1518 28.0001 14 28.0001C6.26801 28.0001 0 21.7321 0 14.0001C0 6.26814 6.26801 0.00012207 14 0.00012207C21.732 0.00012207 28 6.26814 28 14.0001C28 17.152 26.9584 20.0607 25.2007 22.4006C25.2403 22.4304 25.2791 22.4619 25.317 22.4951L33.317 29.4951C34.1483 30.2224 34.2325 31.486 33.5052 32.3172C32.7778 33.1485 31.5143 33.2327 30.683 32.5054L22.683 25.5054C22.5764 25.4121 22.482 25.3099 22.4001 25.201Z" fill="white"/>
</svg>
